<mxfile host="app.diagrams.net" agent="Mozilla/5.0 (Windows NT 10.0; Win64; x64) AppleWebKit/537.36 (KHTML, like Gecko) Chrome/140.0.0.0 Safari/537.36" version="28.2.3">
  <diagram name="Trang-1" id="n7tlqCvDL48HPVUhfW2I">
    <mxGraphModel dx="1889" dy="799" grid="0" gridSize="10" guides="1" tooltips="1" connect="1" arrows="1" fold="1" page="0" pageScale="1" pageWidth="827" pageHeight="1169" math="0" shadow="0">
      <root>
        <mxCell id="0" />
        <mxCell id="1" parent="0" />
        <mxCell id="ubGxsz5VI7BrEiwVZRRf-1" value="Độc giả" style="whiteSpace=wrap;html=1;align=center;" parent="1" vertex="1">
          <mxGeometry x="80" y="330" width="100" height="40" as="geometry" />
        </mxCell>
        <mxCell id="ubGxsz5VI7BrEiwVZRRf-2" value="DFD mức 0" style="text;html=1;align=center;verticalAlign=middle;resizable=0;points=[];autosize=1;strokeColor=none;fillColor=none;" parent="1" vertex="1">
          <mxGeometry x="100" y="70" width="90" height="30" as="geometry" />
        </mxCell>
        <mxCell id="ubGxsz5VI7BrEiwVZRRf-3" value="Nhân viên" style="whiteSpace=wrap;html=1;align=center;" parent="1" vertex="1">
          <mxGeometry x="600" y="390" width="100" height="40" as="geometry" />
        </mxCell>
        <mxCell id="ubGxsz5VI7BrEiwVZRRf-4" value="Quản trị viên" style="whiteSpace=wrap;html=1;align=center;" parent="1" vertex="1">
          <mxGeometry x="630" y="160" width="100" height="40" as="geometry" />
        </mxCell>
        <mxCell id="ubGxsz5VI7BrEiwVZRRf-5" value="Quản lý thông báo và phản hồi" style="ellipse;whiteSpace=wrap;html=1;align=center;" parent="1" vertex="1">
          <mxGeometry x="310" y="220" width="146" height="50" as="geometry" />
        </mxCell>
        <mxCell id="ubGxsz5VI7BrEiwVZRRf-6" value="" style="endArrow=classic;html=1;rounded=0;exitX=1;exitY=0;exitDx=0;exitDy=0;" parent="1" source="ubGxsz5VI7BrEiwVZRRf-1" target="ubGxsz5VI7BrEiwVZRRf-5" edge="1">
          <mxGeometry width="50" height="50" relative="1" as="geometry">
            <mxPoint x="270" y="290" as="sourcePoint" />
            <mxPoint x="320" y="240" as="targetPoint" />
          </mxGeometry>
        </mxCell>
        <mxCell id="ubGxsz5VI7BrEiwVZRRf-7" value="Phản hồi/ đánh giá" style="text;html=1;align=center;verticalAlign=middle;resizable=0;points=[];autosize=1;strokeColor=none;fillColor=none;rotation=-20;" parent="1" vertex="1">
          <mxGeometry x="180" y="260" width="120" height="30" as="geometry" />
        </mxCell>
        <mxCell id="ubGxsz5VI7BrEiwVZRRf-8" value="" style="endArrow=classic;html=1;rounded=0;exitX=0.614;exitY=0.984;exitDx=0;exitDy=0;exitPerimeter=0;entryX=0.5;entryY=0;entryDx=0;entryDy=0;" parent="1" source="ubGxsz5VI7BrEiwVZRRf-5" target="ubGxsz5VI7BrEiwVZRRf-3" edge="1">
          <mxGeometry width="50" height="50" relative="1" as="geometry">
            <mxPoint x="460" y="350" as="sourcePoint" />
            <mxPoint x="510" y="300" as="targetPoint" />
          </mxGeometry>
        </mxCell>
        <mxCell id="ubGxsz5VI7BrEiwVZRRf-9" value="danh sách phản hồi,&lt;div&gt;&amp;nbsp;báo cáo&lt;/div&gt;" style="text;html=1;align=center;verticalAlign=middle;resizable=0;points=[];autosize=1;strokeColor=none;fillColor=none;rotation=-15;" parent="1" vertex="1">
          <mxGeometry x="520" y="230" width="130" height="40" as="geometry" />
        </mxCell>
        <mxCell id="ubGxsz5VI7BrEiwVZRRf-10" value="" style="endArrow=classic;html=1;rounded=0;exitX=0;exitY=0.25;exitDx=0;exitDy=0;entryX=0.986;entryY=0.328;entryDx=0;entryDy=0;entryPerimeter=0;" parent="1" source="ubGxsz5VI7BrEiwVZRRf-4" target="ubGxsz5VI7BrEiwVZRRf-5" edge="1">
          <mxGeometry width="50" height="50" relative="1" as="geometry">
            <mxPoint x="450" y="210" as="sourcePoint" />
            <mxPoint x="500" y="160" as="targetPoint" />
          </mxGeometry>
        </mxCell>
        <mxCell id="ubGxsz5VI7BrEiwVZRRf-11" value="Thông báo mượn sách, đặt trước" style="text;html=1;align=center;verticalAlign=middle;resizable=0;points=[];autosize=1;strokeColor=none;fillColor=none;rotation=-15;" parent="1" vertex="1">
          <mxGeometry x="431" y="165" width="200" height="30" as="geometry" />
        </mxCell>
        <mxCell id="ubGxsz5VI7BrEiwVZRRf-12" value="" style="endArrow=classic;html=1;rounded=0;exitX=0.438;exitY=1;exitDx=0;exitDy=0;exitPerimeter=0;entryX=1;entryY=0.5;entryDx=0;entryDy=0;" parent="1" source="ubGxsz5VI7BrEiwVZRRf-5" target="ubGxsz5VI7BrEiwVZRRf-1" edge="1">
          <mxGeometry width="50" height="50" relative="1" as="geometry">
            <mxPoint x="330" y="460" as="sourcePoint" />
            <mxPoint x="380" y="410" as="targetPoint" />
          </mxGeometry>
        </mxCell>
        <mxCell id="ubGxsz5VI7BrEiwVZRRf-13" value="Thông báo, phản hồi&amp;nbsp;" style="text;html=1;align=center;verticalAlign=middle;resizable=0;points=[];autosize=1;strokeColor=none;fillColor=none;rotation=-20;" parent="1" vertex="1">
          <mxGeometry x="240" y="310" width="140" height="30" as="geometry" />
        </mxCell>
        <mxCell id="ubGxsz5VI7BrEiwVZRRf-14" value="DFD mức 1&amp;nbsp;" style="text;html=1;align=center;verticalAlign=middle;resizable=0;points=[];autosize=1;strokeColor=none;fillColor=none;" parent="1" vertex="1">
          <mxGeometry x="-70" y="453" width="90" height="30" as="geometry" />
        </mxCell>
        <mxCell id="ubGxsz5VI7BrEiwVZRRf-15" value="Độc giả" style="whiteSpace=wrap;html=1;align=center;" parent="1" vertex="1">
          <mxGeometry x="530" y="960" width="100" height="40" as="geometry" />
        </mxCell>
        <mxCell id="ubGxsz5VI7BrEiwVZRRf-16" value="" style="endArrow=classic;html=1;rounded=0;exitX=0;exitY=0.5;exitDx=0;exitDy=0;" parent="1" source="ubGxsz5VI7BrEiwVZRRf-3" edge="1">
          <mxGeometry width="50" height="50" relative="1" as="geometry">
            <mxPoint x="420" y="420" as="sourcePoint" />
            <mxPoint x="400" y="270" as="targetPoint" />
          </mxGeometry>
        </mxCell>
        <mxCell id="ubGxsz5VI7BrEiwVZRRf-17" value="Thông báo mượn sách, đặt trước" style="text;html=1;align=center;verticalAlign=middle;resizable=0;points=[];autosize=1;strokeColor=none;fillColor=none;rotation=30;" parent="1" vertex="1">
          <mxGeometry x="400" y="360" width="200" height="30" as="geometry" />
        </mxCell>
        <mxCell id="ubGxsz5VI7BrEiwVZRRf-18" value="Nhân viên" style="whiteSpace=wrap;html=1;align=center;" parent="1" vertex="1">
          <mxGeometry x="20" y="810" width="100" height="40" as="geometry" />
        </mxCell>
        <mxCell id="ubGxsz5VI7BrEiwVZRRf-21" value="Quản lý thông báo" style="ellipse;whiteSpace=wrap;html=1;align=center;" parent="1" vertex="1">
          <mxGeometry x="310" y="810" width="100" height="40" as="geometry" />
        </mxCell>
        <mxCell id="ubGxsz5VI7BrEiwVZRRf-23" value="" style="endArrow=classic;html=1;rounded=0;exitX=1;exitY=0.5;exitDx=0;exitDy=0;entryX=0;entryY=0.5;entryDx=0;entryDy=0;" parent="1" source="ubGxsz5VI7BrEiwVZRRf-18" target="ubGxsz5VI7BrEiwVZRRf-21" edge="1">
          <mxGeometry width="50" height="50" relative="1" as="geometry">
            <mxPoint x="250" y="820" as="sourcePoint" />
            <mxPoint x="280" y="820" as="targetPoint" />
          </mxGeometry>
        </mxCell>
        <mxCell id="ubGxsz5VI7BrEiwVZRRf-24" value="yêu cầu gửi thông báo" style="text;html=1;align=center;verticalAlign=middle;resizable=0;points=[];autosize=1;strokeColor=none;fillColor=none;rotation=-5;" parent="1" vertex="1">
          <mxGeometry x="130" y="790" width="140" height="30" as="geometry" />
        </mxCell>
        <mxCell id="ubGxsz5VI7BrEiwVZRRf-26" value="Lưu thông báo" style="text;html=1;align=center;verticalAlign=middle;resizable=0;points=[];autosize=1;strokeColor=none;fillColor=none;rotation=-15;" parent="1" vertex="1">
          <mxGeometry x="481" y="730" width="100" height="30" as="geometry" />
        </mxCell>
        <mxCell id="ubGxsz5VI7BrEiwVZRRf-27" value="Dữ liệu thông báo" style="shape=partialRectangle;whiteSpace=wrap;html=1;left=0;right=0;fillColor=none;" parent="1" vertex="1">
          <mxGeometry x="635" y="700" width="90" height="50" as="geometry" />
        </mxCell>
        <mxCell id="ubGxsz5VI7BrEiwVZRRf-29" value="" style="endArrow=classic;html=1;rounded=0;exitX=0.5;exitY=1;exitDx=0;exitDy=0;" parent="1" source="ubGxsz5VI7BrEiwVZRRf-21" target="ubGxsz5VI7BrEiwVZRRf-15" edge="1">
          <mxGeometry width="50" height="50" relative="1" as="geometry">
            <mxPoint x="220" y="930" as="sourcePoint" />
            <mxPoint x="330" y="950" as="targetPoint" />
          </mxGeometry>
        </mxCell>
        <mxCell id="ubGxsz5VI7BrEiwVZRRf-30" value="Dữ liệu sách" style="shape=partialRectangle;whiteSpace=wrap;html=1;left=0;right=0;fillColor=none;" parent="1" vertex="1">
          <mxGeometry x="-210" y="960" width="90" height="50" as="geometry" />
        </mxCell>
        <mxCell id="ubGxsz5VI7BrEiwVZRRf-31" value="" style="endArrow=classic;html=1;rounded=0;exitX=0.75;exitY=1;exitDx=0;exitDy=0;entryX=0.5;entryY=0;entryDx=0;entryDy=0;" parent="1" source="ubGxsz5VI7BrEiwVZRRf-18" target="ubGxsz5VI7BrEiwVZRRf-30" edge="1">
          <mxGeometry width="50" height="50" relative="1" as="geometry">
            <mxPoint x="190" y="930" as="sourcePoint" />
            <mxPoint x="95" y="910" as="targetPoint" />
          </mxGeometry>
        </mxCell>
        <mxCell id="ubGxsz5VI7BrEiwVZRRf-32" value="Cập nhật trạng thái" style="text;html=1;align=center;verticalAlign=middle;resizable=0;points=[];autosize=1;strokeColor=none;fillColor=none;rotation=-20;" parent="1" vertex="1">
          <mxGeometry x="-80" y="910" width="130" height="30" as="geometry" />
        </mxCell>
        <mxCell id="ubGxsz5VI7BrEiwVZRRf-33" value="" style="endArrow=classic;html=1;rounded=0;exitX=0.25;exitY=0;exitDx=0;exitDy=0;entryX=0.5;entryY=1;entryDx=0;entryDy=0;" parent="1" source="ubGxsz5VI7BrEiwVZRRf-30" target="ubGxsz5VI7BrEiwVZRRf-18" edge="1">
          <mxGeometry width="50" height="50" relative="1" as="geometry">
            <mxPoint x="-40" y="1020" as="sourcePoint" />
            <mxPoint x="10" y="970" as="targetPoint" />
          </mxGeometry>
        </mxCell>
        <mxCell id="ubGxsz5VI7BrEiwVZRRf-34" value="Trạng thái sách" style="text;html=1;align=center;verticalAlign=middle;resizable=0;points=[];autosize=1;strokeColor=none;fillColor=none;" parent="1" vertex="1">
          <mxGeometry x="-150" y="860" width="110" height="30" as="geometry" />
        </mxCell>
        <mxCell id="ubGxsz5VI7BrEiwVZRRf-35" value="Thông báo, cảnh báo" style="text;html=1;align=center;verticalAlign=middle;resizable=0;points=[];autosize=1;strokeColor=none;fillColor=none;rotation=30;" parent="1" vertex="1">
          <mxGeometry x="410" y="890" width="140" height="30" as="geometry" />
        </mxCell>
        <mxCell id="ubGxsz5VI7BrEiwVZRRf-36" value="Quản lý phản hồi, đánh giá" style="ellipse;whiteSpace=wrap;html=1;align=center;" parent="1" vertex="1">
          <mxGeometry x="270" y="1005" width="100" height="40" as="geometry" />
        </mxCell>
        <mxCell id="ubGxsz5VI7BrEiwVZRRf-37" value="" style="endArrow=classic;html=1;rounded=0;entryX=0.32;entryY=1.05;entryDx=0;entryDy=0;entryPerimeter=0;" parent="1" target="ubGxsz5VI7BrEiwVZRRf-4" edge="1">
          <mxGeometry width="50" height="50" relative="1" as="geometry">
            <mxPoint x="460" y="250" as="sourcePoint" />
            <mxPoint x="720" y="240" as="targetPoint" />
          </mxGeometry>
        </mxCell>
        <mxCell id="ubGxsz5VI7BrEiwVZRRf-39" value="" style="endArrow=classic;html=1;rounded=0;exitX=0;exitY=0.25;exitDx=0;exitDy=0;entryX=1;entryY=0;entryDx=0;entryDy=0;" parent="1" source="ubGxsz5VI7BrEiwVZRRf-15" target="ubGxsz5VI7BrEiwVZRRf-36" edge="1">
          <mxGeometry width="50" height="50" relative="1" as="geometry">
            <mxPoint x="310" y="1110" as="sourcePoint" />
            <mxPoint x="360" y="1060" as="targetPoint" />
          </mxGeometry>
        </mxCell>
        <mxCell id="ubGxsz5VI7BrEiwVZRRf-40" value="Phản hồi/ Đánh giá" style="text;html=1;align=center;verticalAlign=middle;resizable=0;points=[];autosize=1;strokeColor=none;fillColor=none;rotation=-10;" parent="1" vertex="1">
          <mxGeometry x="365" y="950" width="130" height="30" as="geometry" />
        </mxCell>
        <mxCell id="ubGxsz5VI7BrEiwVZRRf-41" value="" style="endArrow=classic;html=1;rounded=0;exitX=0;exitY=0.5;exitDx=0;exitDy=0;entryX=1;entryY=1;entryDx=0;entryDy=0;" parent="1" source="ubGxsz5VI7BrEiwVZRRf-36" target="ubGxsz5VI7BrEiwVZRRf-18" edge="1">
          <mxGeometry width="50" height="50" relative="1" as="geometry">
            <mxPoint x="200" y="1060" as="sourcePoint" />
            <mxPoint x="250" y="1010" as="targetPoint" />
          </mxGeometry>
        </mxCell>
        <mxCell id="ubGxsz5VI7BrEiwVZRRf-42" value="Báo cáo phản hồi" style="text;html=1;align=center;verticalAlign=middle;resizable=0;points=[];autosize=1;strokeColor=none;fillColor=none;rotation=45;" parent="1" vertex="1">
          <mxGeometry x="170" y="920" width="120" height="30" as="geometry" />
        </mxCell>
        <mxCell id="ubGxsz5VI7BrEiwVZRRf-45" value="CSDL Phản hồi" style="shape=partialRectangle;whiteSpace=wrap;html=1;left=0;right=0;fillColor=none;" parent="1" vertex="1">
          <mxGeometry x="275" y="1100" width="90" height="50" as="geometry" />
        </mxCell>
        <mxCell id="ubGxsz5VI7BrEiwVZRRf-47" value="Xác nhận phản hồi" style="text;html=1;align=center;verticalAlign=middle;resizable=0;points=[];autosize=1;strokeColor=none;fillColor=none;rotation=-15;" parent="1" vertex="1">
          <mxGeometry x="400" y="1010" width="120" height="30" as="geometry" />
        </mxCell>
        <mxCell id="ubGxsz5VI7BrEiwVZRRf-48" value="" style="endArrow=classic;html=1;rounded=0;exitX=1;exitY=0.5;exitDx=0;exitDy=0;entryX=0;entryY=0.75;entryDx=0;entryDy=0;" parent="1" source="ubGxsz5VI7BrEiwVZRRf-36" target="ubGxsz5VI7BrEiwVZRRf-15" edge="1">
          <mxGeometry width="50" height="50" relative="1" as="geometry">
            <mxPoint x="460" y="1080" as="sourcePoint" />
            <mxPoint x="510" y="1030" as="targetPoint" />
          </mxGeometry>
        </mxCell>
        <mxCell id="ubGxsz5VI7BrEiwVZRRf-49" value="" style="endArrow=classic;html=1;rounded=0;exitX=0.75;exitY=1;exitDx=0;exitDy=0;entryX=0.066;entryY=0.88;entryDx=0;entryDy=0;entryPerimeter=0;" parent="1" source="ubGxsz5VI7BrEiwVZRRf-18" target="ubGxsz5VI7BrEiwVZRRf-36" edge="1">
          <mxGeometry width="50" height="50" relative="1" as="geometry">
            <mxPoint x="90" y="1030" as="sourcePoint" />
            <mxPoint x="140" y="980" as="targetPoint" />
          </mxGeometry>
        </mxCell>
        <mxCell id="ubGxsz5VI7BrEiwVZRRf-50" value="Trả lời phản hồi" style="text;html=1;align=center;verticalAlign=middle;resizable=0;points=[];autosize=1;strokeColor=none;fillColor=none;rotation=45;" parent="1" vertex="1">
          <mxGeometry x="110" y="950" width="110" height="30" as="geometry" />
        </mxCell>
        <mxCell id="ubGxsz5VI7BrEiwVZRRf-62" value="danh sách phản hồi,&lt;div&gt;&amp;nbsp;báo cáo&lt;/div&gt;" style="text;html=1;align=center;verticalAlign=middle;resizable=0;points=[];autosize=1;strokeColor=none;fillColor=none;rotation=30;" parent="1" vertex="1">
          <mxGeometry x="510" y="305" width="130" height="40" as="geometry" />
        </mxCell>
        <mxCell id="asnq-Hgx_9pDw5FczAAc-1" value="Quản trị" style="whiteSpace=wrap;html=1;align=center;" parent="1" vertex="1">
          <mxGeometry x="840" y="820" width="100" height="40" as="geometry" />
        </mxCell>
        <mxCell id="asnq-Hgx_9pDw5FczAAc-2" value="" style="endArrow=classic;startArrow=classic;html=1;rounded=0;exitX=1;exitY=0.5;exitDx=0;exitDy=0;entryX=0;entryY=0.5;entryDx=0;entryDy=0;" parent="1" source="ubGxsz5VI7BrEiwVZRRf-21" target="ubGxsz5VI7BrEiwVZRRf-27" edge="1">
          <mxGeometry width="50" height="50" relative="1" as="geometry">
            <mxPoint x="620" y="860" as="sourcePoint" />
            <mxPoint x="670" y="810" as="targetPoint" />
          </mxGeometry>
        </mxCell>
        <mxCell id="asnq-Hgx_9pDw5FczAAc-3" value="" style="endArrow=classic;html=1;rounded=0;entryX=1;entryY=0.5;entryDx=0;entryDy=0;exitX=0;exitY=0.5;exitDx=0;exitDy=0;" parent="1" source="asnq-Hgx_9pDw5FczAAc-1" target="ubGxsz5VI7BrEiwVZRRf-21" edge="1">
          <mxGeometry width="50" height="50" relative="1" as="geometry">
            <mxPoint x="680" y="970" as="sourcePoint" />
            <mxPoint x="730" y="920" as="targetPoint" />
          </mxGeometry>
        </mxCell>
        <mxCell id="asnq-Hgx_9pDw5FczAAc-4" value="yêu cầu gửi thông báo" style="text;html=1;align=center;verticalAlign=middle;resizable=0;points=[];autosize=1;strokeColor=none;fillColor=none;rotation=0;" parent="1" vertex="1">
          <mxGeometry x="490" y="800" width="140" height="30" as="geometry" />
        </mxCell>
        <mxCell id="asnq-Hgx_9pDw5FczAAc-5" value="" style="endArrow=classic;startArrow=classic;html=1;rounded=0;exitX=0.5;exitY=1;exitDx=0;exitDy=0;entryX=0.5;entryY=0;entryDx=0;entryDy=0;" parent="1" source="ubGxsz5VI7BrEiwVZRRf-36" target="ubGxsz5VI7BrEiwVZRRf-45" edge="1">
          <mxGeometry width="50" height="50" relative="1" as="geometry">
            <mxPoint x="300" y="1050" as="sourcePoint" />
            <mxPoint x="440" y="1100" as="targetPoint" />
          </mxGeometry>
        </mxCell>
        <mxCell id="asnq-Hgx_9pDw5FczAAc-6" value="" style="endArrow=classic;html=1;rounded=0;exitX=0.76;exitY=0.881;exitDx=0;exitDy=0;exitPerimeter=0;entryX=0.6;entryY=1;entryDx=0;entryDy=0;entryPerimeter=0;" parent="1" source="ubGxsz5VI7BrEiwVZRRf-36" target="asnq-Hgx_9pDw5FczAAc-1" edge="1">
          <mxGeometry width="50" height="50" relative="1" as="geometry">
            <mxPoint x="590" y="1110" as="sourcePoint" />
            <mxPoint x="900" y="1030" as="targetPoint" />
            <Array as="points">
              <mxPoint x="346" y="1080" />
              <mxPoint x="900" y="1080" />
            </Array>
          </mxGeometry>
        </mxCell>
        <mxCell id="asnq-Hgx_9pDw5FczAAc-7" value="Báo cáo phản hồi" style="text;html=1;align=center;verticalAlign=middle;resizable=0;points=[];autosize=1;strokeColor=none;fillColor=none;rotation=0;" parent="1" vertex="1">
          <mxGeometry x="680" y="1045" width="120" height="30" as="geometry" />
        </mxCell>
        <mxCell id="asnq-Hgx_9pDw5FczAAc-8" value="Quản trị" style="whiteSpace=wrap;html=1;align=center;" parent="1" vertex="1">
          <mxGeometry x="-215" y="1100" width="100" height="40" as="geometry" />
        </mxCell>
        <mxCell id="asnq-Hgx_9pDw5FczAAc-9" value="" style="endArrow=classic;html=1;rounded=0;exitX=0.25;exitY=1;exitDx=0;exitDy=0;entryX=0.25;entryY=0;entryDx=0;entryDy=0;" parent="1" source="ubGxsz5VI7BrEiwVZRRf-30" target="asnq-Hgx_9pDw5FczAAc-8" edge="1">
          <mxGeometry width="50" height="50" relative="1" as="geometry">
            <mxPoint x="-190" y="1110" as="sourcePoint" />
            <mxPoint x="-187" y="1080" as="targetPoint" />
          </mxGeometry>
        </mxCell>
        <mxCell id="asnq-Hgx_9pDw5FczAAc-10" value="" style="endArrow=classic;html=1;rounded=0;entryX=0.75;entryY=1;entryDx=0;entryDy=0;exitX=0.75;exitY=0;exitDx=0;exitDy=0;" parent="1" source="asnq-Hgx_9pDw5FczAAc-8" target="ubGxsz5VI7BrEiwVZRRf-30" edge="1">
          <mxGeometry width="50" height="50" relative="1" as="geometry">
            <mxPoint x="-20" y="1100" as="sourcePoint" />
            <mxPoint y="1070" as="targetPoint" />
          </mxGeometry>
        </mxCell>
        <mxCell id="asnq-Hgx_9pDw5FczAAc-11" value="Trạng thái sách" style="text;html=1;align=center;verticalAlign=middle;resizable=0;points=[];autosize=1;strokeColor=none;fillColor=none;" parent="1" vertex="1">
          <mxGeometry x="-300" y="1040" width="110" height="30" as="geometry" />
        </mxCell>
        <mxCell id="asnq-Hgx_9pDw5FczAAc-12" value="Cập nhật trạng thái" style="text;html=1;align=center;verticalAlign=middle;resizable=0;points=[];autosize=1;strokeColor=none;fillColor=none;rotation=0;" parent="1" vertex="1">
          <mxGeometry x="-130" y="1040" width="130" height="30" as="geometry" />
        </mxCell>
      </root>
    </mxGraphModel>
  </diagram>
</mxfile>
